# ProBuilder 4.5.0
# https://unity3d.com/unity/features/worldbuilding/probuilder
# 14/02/2021 22:07:19

mtllib ./arrow.mtl
o arrow

g Cone
v -0.67 4.25 0
v -0.579539 4.25 0.5130302
v 0.83 7.25 0
v 0.83 4.25 0
v -0.3190667 4.25 0.9641814
v 0.08000004 4.25 1.299038
v 0.5695277 4.25 1.477212
v 1.090472 4.25 1.477212
v 1.58 4.25 1.299038
v 1.979067 4.25 0.9641814
v 2.239539 4.25 0.5130303
v 2.33 4.25 -1.311342E-07
v 2.239539 4.25 -0.5130302
v 1.979067 4.25 -0.9641814
v 1.58 4.25 -1.299038
v 1.090472 4.25 -1.477212
v 0.5695277 4.25 -1.477212
v 0.0800001 4.25 -1.299038
v -0.3190665 4.25 -0.9641817
v -0.5795389 4.25 -0.5130305

vt 0 4.043375E-09
vt 0.5209445 0
vt 0.2604721 3.343973
vt 0.09046102 0.5130302
vt 1.5 0
vt 0.3509333 0.9641814
vt 0.7500001 1.299038
vt 1.239528 1.477212
vt 1.760472 1.477212
vt 2.25 1.299038
vt 2.649067 0.9641814
vt 2.909539 0.5130303
vt 3 -1.311342E-07
vt 2.909539 -0.5130302
vt 2.649067 -0.9641814
vt 2.25 -1.299038
vt 1.760472 -1.477212
vt 1.239528 -1.477212
vt 0.7500001 -1.299038
vt 0.3509336 -0.9641817
vt 0.09046113 -0.5130305

vn -0.883507 0.4417535 0.155786
vn 0 -1 0
vn -0.776943 0.4417534 0.4485683
vn -0.5766683 0.4417534 0.6872464
vn -0.3068386 0.4417535 0.8430325
vn 0 0.4417535 0.8971365
vn 0.3068388 0.4417535 0.8430325
vn 0.5766681 0.4417534 0.6872465
vn 0.776943 0.4417535 0.4485683
vn 0.883507 0.4417535 0.155786
vn 0.883507 0.4417535 -0.1557861
vn 0.776943 0.4417535 -0.4485683
vn 0.5766683 0.4417535 -0.6872463
vn 0.3068387 0.4417535 -0.8430325
vn -2.052944E-07 0.4417535 -0.8971364
vn -0.3068387 0.4417535 -0.8430325
vn -0.5766681 0.4417535 -0.6872465
vn -0.7769428 0.4417535 -0.4485685
vn -0.8835069 0.4417534 -0.1557861

usemtl ProBuilderDefault
f 1/1/1 2/2/1 3/3/1
f 4/5/2 2/4/2 1/1/2
f 2/1/3 5/2/3 3/3/3
f 4/5/2 5/6/2 2/4/2
f 5/1/4 6/2/4 3/3/4
f 4/5/2 6/7/2 5/6/2
f 6/1/5 7/2/5 3/3/5
f 4/5/2 7/8/2 6/7/2
f 7/1/6 8/2/6 3/3/6
f 4/5/2 8/9/2 7/8/2
f 8/1/7 9/2/7 3/3/7
f 4/5/2 9/10/2 8/9/2
f 9/1/8 10/2/8 3/3/8
f 4/5/2 10/11/2 9/10/2
f 10/1/9 11/2/9 3/3/9
f 4/5/2 11/12/2 10/11/2
f 11/1/10 12/2/10 3/3/10
f 4/5/2 12/13/2 11/12/2
f 12/1/11 13/2/11 3/3/11
f 4/5/2 13/14/2 12/13/2
f 13/1/12 14/2/12 3/3/12
f 4/5/2 14/15/2 13/14/2
f 14/1/13 15/2/13 3/3/13
f 4/5/2 15/16/2 14/15/2
f 15/1/14 16/2/14 3/3/14
f 4/5/2 16/17/2 15/16/2
f 16/1/15 17/2/15 3/3/15
f 4/5/2 17/18/2 16/17/2
f 17/1/16 18/2/16 3/3/16
f 4/5/2 18/19/2 17/18/2
f 18/1/17 19/2/17 3/3/17
f 4/5/2 19/20/2 18/19/2
f 19/1/18 20/2/18 3/3/18
f 4/5/2 20/21/2 19/20/2
f 20/1/19 1/2/19 3/3/19
f 4/5/2 1/1/2 20/21/2

g Cylinder
v 0 0 0
v 0 4.5 0
v 0.0153718 0 0.1560723
v 0.0153718 4.5 0.1560723
v 0.0608964 0 0.3061468
v 0.0608964 4.5 0.3061468
v 0.1348243 0 0.4444562
v 0.1348243 4.5 0.4444562
v 0.2343146 0 0.5656855
v 0.2343146 4.5 0.5656855
v 0.3555438 0 0.6651757
v 0.3555438 4.5 0.6651757
v 0.4938533 0 0.7391036
v 0.4938533 4.5 0.7391036
v 0.6439277 0 0.7846282
v 0.6439277 4.5 0.7846282
v 0.8000001 0 0.8
v 0.8000001 4.5 0.8
v 0.9560723 0 0.7846282
v 0.9560723 4.5 0.7846282
v 1.106147 0 0.7391037
v 1.106147 4.5 0.7391037
v 1.244456 0 0.6651757
v 1.244456 4.5 0.6651757
v 1.365685 0 0.5656855
v 1.365685 4.5 0.5656855
v 1.465176 0 0.4444562
v 1.465176 4.5 0.4444562
v 1.539104 0 0.3061468
v 1.539104 4.5 0.3061468
v 1.584628 0 0.1560722
v 1.584628 4.5 0.1560722
v 1.6 0 -6.993822E-08
v 1.6 4.5 -6.993822E-08
v 1.584628 0 -0.1560722
v 1.584628 4.5 -0.1560722
v 1.539104 0 -0.3061467
v 1.539104 4.5 -0.3061467
v 1.465176 0 -0.4444562
v 1.465176 4.5 -0.4444562
v 1.365685 0 -0.5656854
v 1.365685 4.5 -0.5656854
v 1.244456 0 -0.6651756
v 1.244456 4.5 -0.6651756
v 1.106147 0 -0.7391036
v 1.106147 4.5 -0.7391036
v 0.9560723 0 -0.7846282
v 0.9560723 4.5 -0.7846282
v 0.8 0 -0.8
v 0.8 4.5 -0.8
v 0.6439277 0 -0.7846282
v 0.6439277 4.5 -0.7846282
v 0.4938531 0 -0.7391036
v 0.4938531 4.5 -0.7391036
v 0.3555439 0 -0.6651758
v 0.3555439 4.5 -0.6651758
v 0.2343147 0 -0.5656855
v 0.2343147 4.5 -0.5656855
v 0.1348243 0 -0.4444562
v 0.1348243 4.5 -0.4444562
v 0.06089634 0 -0.3061467
v 0.06089634 4.5 -0.3061467
v 0.01537174 0 -0.1560722
v 0.01537174 4.5 -0.1560722
v 0.8 0 0
v 0.8 4.5 0

vt 0 0
vt 0 4.5
vt 0.1568274 0
vt 0.1568274 4.5
vt 0.153814 0
vt 0.153814 4.5
vt 0.3106415 0
vt 0.3106415 4.5
vt 0.2987037 0
vt 0.2987037 4.5
vt 0.4555311 0
vt 0.4555311 4.5
vt 0.429101 0
vt 0.429101 4.5
vt 0.5859284 0
vt 0.5859284 4.5
vt 0.5399946 0
vt 0.5399946 4.5
vt 0.696822 0
vt 0.696822 4.5
vt 0.6271233 0
vt 0.6271233 4.5
vt 0.7839507 0
vt 0.7839507 4.5
vt 0.6871386 0
vt 0.6871386 4.5
vt 0.843966 0
vt 0.843966 4.5
vt 0.7177341 0
vt 0.7177341 4.5
vt 0.8745616 0
vt 0.8745616 4.5
vt -0.1568265 0
vt -0.1568265 4.5
vt -0.3106425 0
vt -0.3106425 4.5
vt -0.153815 0
vt -0.153815 4.5
vt -0.4555313 0
vt -0.4555313 4.5
vt -0.2987038 0
vt -0.2987038 4.5
vt -0.5859281 0
vt -0.5859281 4.5
vt -0.4291008 0
vt -0.4291008 4.5
vt -0.696822 0
vt -0.696822 4.5
vt -0.5399947 0
vt -0.5399947 4.5
vt -0.7839506 0
vt -0.7839506 4.5
vt -0.6271231 0
vt -0.6271231 4.5
vt -0.8439661 0
vt -0.8439661 4.5
vt -0.6871386 0
vt -0.6871386 4.5
vt -0.8745615 0
vt -0.8745615 4.5
vt -0.717734 0
vt -0.717734 4.5
vt 0.8 0
vt 0.0153718 0.1560723
vt -0.8 0
vt -0.0153718 0.1560723
vt 0.0608964 0.3061468
vt -0.0608964 0.3061468
vt 0.1348243 0.4444562
vt -0.1348243 0.4444562
vt 0.2343146 0.5656855
vt -0.2343146 0.5656855
vt 0.3555438 0.6651757
vt -0.3555438 0.6651757
vt 0.4938533 0.7391036
vt -0.4938533 0.7391036
vt 0.6439277 0.7846282
vt -0.6439277 0.7846282
vt 0.8000001 0.8
vt -0.8000001 0.8
vt 0.9560723 0.7846282
vt -0.9560723 0.7846282
vt 1.106147 0.7391037
vt -1.106147 0.7391037
vt 1.244456 0.6651757
vt -1.244456 0.6651757
vt 1.365685 0.5656855
vt -1.365685 0.5656855
vt 1.465176 0.4444562
vt -1.465176 0.4444562
vt 1.539104 0.3061468
vt -1.539104 0.3061468
vt 1.584628 0.1560722
vt -1.584628 0.1560722
vt 1.6 -6.993822E-08
vt -1.6 -6.993822E-08
vt 1.584628 -0.1560722
vt -1.584628 -0.1560722
vt 1.539104 -0.3061467
vt -1.539104 -0.3061467
vt 1.465176 -0.4444562
vt -1.465176 -0.4444562
vt 1.365685 -0.5656854
vt -1.365685 -0.5656854
vt 1.244456 -0.6651756
vt -1.244456 -0.6651756
vt 1.106147 -0.7391036
vt -1.106147 -0.7391036
vt 0.9560723 -0.7846282
vt -0.9560723 -0.7846282
vt 0.8 -0.8
vt -0.8 -0.8
vt 0.6439277 -0.7846282
vt -0.6439277 -0.7846282
vt 0.4938531 -0.7391036
vt -0.4938531 -0.7391036
vt 0.3555439 -0.6651758
vt -0.3555439 -0.6651758
vt 0.2343147 -0.5656855
vt -0.2343147 -0.5656855
vt 0.1348243 -0.4444562
vt -0.1348243 -0.4444562
vt 0.06089634 -0.3061467
vt -0.06089634 -0.3061467
vt 0.01537174 -0.1560722
vt -0.01537174 -0.1560722

vn -1 0 1.647059E-07
vn -0.9807853 0 0.1950904
vn -0.9238795 0 0.3826835
vn -0.8314697 0 0.5555701
vn -0.7071068 0 0.7071068
vn -0.5555701 0 0.8314697
vn -0.3826835 0 0.9238795
vn -0.1950904 0 0.9807853
vn 5.989305E-08 0 1
vn 0.1950903 0 0.9807853
vn 0.3826833 0 0.9238796
vn 0.5555702 0 0.8314697
vn 0.7071068 0 0.7071068
vn 0.8314697 0 0.5555702
vn 0.9238794 0 0.3826837
vn 0.9807853 0 0.1950903
vn 1 0 -5.989304E-08
vn 0.9807853 0 -0.1950904
vn 0.9238794 0 -0.3826838
vn 0.8314696 0 -0.5555703
vn 0.7071068 0 -0.7071068
vn 0.5555704 0 -0.8314695
vn 0.3826836 0 -0.9238794
vn 0.1950904 0 -0.9807853
vn 0 0 -1
vn -0.1950905 0 -0.9807853
vn -0.3826834 0 -0.9238796
vn -0.5555701 0 -0.8314697
vn -0.7071067 0 -0.7071069
vn -0.8314695 0 -0.5555704
vn -0.9238795 0 -0.3826835
vn -0.9807853 0 -0.1950902
vn 0 -1 0
vn 0 1 0

usemtl ProBuilderDefault
f 21/22/52 85/84/52 23/85/52
f 23/85/52 85/84/52 25/88/52
f 25/88/52 85/84/52 27/90/52
f 27/90/52 85/84/52 29/92/52
f 29/92/52 85/84/52 31/94/52
f 31/94/52 85/84/52 33/96/52
f 33/96/52 85/84/52 35/98/52
f 35/98/52 85/84/52 37/100/52
f 37/100/52 85/84/52 39/102/52
f 39/102/52 85/84/52 41/104/52
f 41/104/52 85/84/52 43/106/52
f 43/106/52 85/84/52 45/108/52
f 45/108/52 85/84/52 47/110/52
f 47/110/52 85/84/52 49/112/52
f 49/112/52 85/84/52 51/114/52
f 51/114/52 85/84/52 53/116/52
f 53/116/52 85/84/52 55/118/52
f 55/118/52 85/84/52 57/120/52
f 57/120/52 85/84/52 59/122/52
f 59/122/52 85/84/52 61/124/52
f 61/124/52 85/84/52 63/126/52
f 63/126/52 85/84/52 65/128/52
f 65/128/52 85/84/52 67/130/52
f 67/130/52 85/84/52 69/132/52
f 69/132/52 85/84/52 71/134/52
f 71/134/52 85/84/52 73/136/52
f 73/136/52 85/84/52 75/138/52
f 75/138/52 85/84/52 77/140/52
f 77/140/52 85/84/52 79/142/52
f 79/142/52 85/84/52 81/144/52
f 81/144/52 85/84/52 83/146/52
f 83/146/52 85/84/52 21/22/52
f 24/87/53 86/86/53 22/22/53
f 26/89/53 86/86/53 24/87/53
f 28/91/53 86/86/53 26/89/53
f 30/93/53 86/86/53 28/91/53
f 32/95/53 86/86/53 30/93/53
f 34/97/53 86/86/53 32/95/53
f 36/99/53 86/86/53 34/97/53
f 38/101/53 86/86/53 36/99/53
f 40/103/53 86/86/53 38/101/53
f 42/105/53 86/86/53 40/103/53
f 44/107/53 86/86/53 42/105/53
f 46/109/53 86/86/53 44/107/53
f 48/111/53 86/86/53 46/109/53
f 50/113/53 86/86/53 48/111/53
f 52/115/53 86/86/53 50/113/53
f 54/117/53 86/86/53 52/115/53
f 56/119/53 86/86/53 54/117/53
f 58/121/53 86/86/53 56/119/53
f 60/123/53 86/86/53 58/121/53
f 62/125/53 86/86/53 60/123/53
f 64/127/53 86/86/53 62/125/53
f 66/129/53 86/86/53 64/127/53
f 68/131/53 86/86/53 66/129/53
f 70/133/53 86/86/53 68/131/53
f 72/135/53 86/86/53 70/133/53
f 74/137/53 86/86/53 72/135/53
f 76/139/53 86/86/53 74/137/53
f 78/141/53 86/86/53 76/139/53
f 80/143/53 86/86/53 78/141/53
f 82/145/53 86/86/53 80/143/53
f 84/147/53 86/86/53 82/145/53
f 22/22/53 86/86/53 84/147/53
f 24/25/21 22/23/20 21/22/20
f 21/22/20 23/24/21 24/25/21
f 26/29/22 24/27/21 23/26/21
f 23/26/21 25/28/22 26/29/22
f 28/33/23 26/31/22 25/30/22
f 25/30/22 27/32/23 28/33/23
f 30/37/24 28/35/23 27/34/23
f 27/34/23 29/36/24 30/37/24
f 32/41/25 30/39/24 29/38/24
f 29/38/24 31/40/25 32/41/25
f 34/45/26 32/43/25 31/42/25
f 31/42/25 33/44/26 34/45/26
f 36/49/27 34/47/26 33/46/26
f 33/46/26 35/48/27 36/49/27
f 38/53/28 36/51/27 35/50/27
f 35/50/27 37/52/28 38/53/28
f 40/53/29 38/51/28 37/50/28
f 37/50/28 39/52/29 40/53/29
f 42/49/30 40/47/29 39/46/29
f 39/46/29 41/48/30 42/49/30
f 44/45/31 42/43/30 41/42/30
f 41/42/30 43/44/31 44/45/31
f 46/41/32 44/39/31 43/38/31
f 43/38/31 45/40/32 46/41/32
f 48/37/33 46/35/32 45/34/32
f 45/34/32 47/36/33 48/37/33
f 50/33/34 48/31/33 47/30/33
f 47/30/33 49/32/34 50/33/34
f 52/29/35 50/27/34 49/26/34
f 49/26/34 51/28/35 52/29/35
f 54/25/36 52/23/35 51/22/35
f 51/22/35 53/24/36 54/25/36
f 56/23/37 54/55/36 53/54/36
f 53/54/36 55/22/37 56/23/37
f 58/59/38 56/57/37 55/56/37
f 55/56/37 57/58/38 58/59/38
f 60/63/39 58/61/38 57/60/38
f 57/60/38 59/62/39 60/63/39
f 62/67/40 60/65/39 59/64/39
f 59/64/39 61/66/40 62/67/40
f 64/71/41 62/69/40 61/68/40
f 61/68/40 63/70/41 64/71/41
f 66/75/42 64/73/41 63/72/41
f 63/72/41 65/74/42 66/75/42
f 68/79/43 66/77/42 65/76/42
f 65/76/42 67/78/43 68/79/43
f 70/83/44 68/81/43 67/80/43
f 67/80/43 69/82/44 70/83/44
f 72/83/45 70/81/44 69/80/44
f 69/80/44 71/82/45 72/83/45
f 74/79/46 72/77/45 71/76/45
f 71/76/45 73/78/46 74/79/46
f 76/75/47 74/73/46 73/72/46
f 73/72/46 75/74/47 76/75/47
f 78/71/48 76/69/47 75/68/47
f 75/68/47 77/70/48 78/71/48
f 80/67/49 78/65/48 77/64/48
f 77/64/48 79/66/49 80/67/49
f 82/63/50 80/61/49 79/60/49
f 79/60/49 81/62/50 82/63/50
f 84/59/51 82/57/50 81/56/50
f 81/56/50 83/58/51 84/59/51
f 22/23/20 84/55/51 83/54/51
f 83/54/51 21/22/20 22/23/20

