# ProBuilder 4.2.3
# https://unity3d.com/unity/features/worldbuilding/probuilder
# 09/02/2021 14:46:46

mtllib ./Cylinder.mtl
o Cylinder

g Cylinder
v 0 0 0
v 0 1 0
v 0.0384295 0 0.3901806
v 0.0384295 1 0.3901806
v 0.152241 0 0.7653669
v 0.152241 1 0.7653669
v 0.3370608 0 1.11114
v 0.3370608 1 1.11114
v 0.5857865 0 1.414214
v 0.5857865 1 1.414214
v 0.8888595 0 1.662939
v 0.8888595 1 1.662939
v 1.234633 0 1.847759
v 1.234633 1 1.847759
v 1.609819 0 1.961571
v 1.609819 1 1.961571
v 2 0 2
v 2 1 2
v 2.390181 0 1.961571
v 2.390181 1 1.961571
v 2.765367 0 1.847759
v 2.765367 1 1.847759
v 3.11114 0 1.662939
v 3.11114 1 1.662939
v 3.414214 0 1.414214
v 3.414214 1 1.414214
v 3.662939 0 1.11114
v 3.662939 1 1.11114
v 3.847759 0 0.765367
v 3.847759 1 0.765367
v 3.961571 0 0.3901806
v 3.961571 1 0.3901806
v 4 0 -1.748456E-07
v 4 1 -1.748456E-07
v 3.961571 0 -0.3901805
v 3.961571 1 -0.3901805
v 3.847759 0 -0.7653669
v 3.847759 1 -0.7653669
v 3.662939 0 -1.111141
v 3.662939 1 -1.111141
v 3.414214 0 -1.414213
v 3.414214 1 -1.414213
v 3.111141 0 -1.662939
v 3.111141 1 -1.662939
v 2.765367 0 -1.847759
v 2.765367 1 -1.847759
v 2.390181 0 -1.961571
v 2.390181 1 -1.961571
v 2 0 -2
v 2 1 -2
v 1.609819 0 -1.961571
v 1.609819 1 -1.961571
v 1.234633 0 -1.847759
v 1.234633 1 -1.847759
v 0.8888599 0 -1.662939
v 0.8888599 1 -1.662939
v 0.5857867 0 -1.414214
v 0.5857867 1 -1.414214
v 0.3370608 0 -1.111141
v 0.3370608 1 -1.111141
v 0.1522409 0 -0.7653669
v 0.1522409 1 -0.7653669
v 0.03842938 0 -0.3901805
v 0.03842938 1 -0.3901805
v 2 0 0
v 2 1 0

vt 0 0
vt 0 1
vt 0.3920686 0
vt 0.3920686 1
vt 0.3845351 0
vt 0.3845351 1
vt 0.7766037 0
vt 0.7766037 1
vt 0.7467593 0
vt 0.7467593 1
vt 1.138828 0
vt 1.138828 1
vt 1.072752 0
vt 1.072752 1
vt 1.464821 0
vt 1.464821 1
vt 1.349987 0
vt 1.349987 1
vt 1.742055 0
vt 1.742055 1
vt 1.567808 0
vt 1.567808 1
vt 1.959877 0
vt 1.959877 1
vt 1.717847 0
vt 1.717847 1
vt 2.109915 0
vt 2.109915 1
vt 1.794335 0
vt 1.794335 1
vt 2.186404 0
vt 2.186404 1
vt -0.3920669 0
vt -0.3920669 1
vt -0.7766057 0
vt -0.7766057 1
vt -0.3845369 0
vt -0.3845369 1
vt -1.138828 0
vt -1.138828 1
vt -0.7467592 0
vt -0.7467592 1
vt -1.464821 0
vt -1.464821 1
vt -1.072752 0
vt -1.072752 1
vt -1.742055 0
vt -1.742055 1
vt -1.349987 0
vt -1.349987 1
vt -1.959876 0
vt -1.959876 1
vt -1.567807 0
vt -1.567807 1
vt -2.109915 0
vt -2.109915 1
vt -1.717847 0
vt -1.717847 1
vt -2.186404 0
vt -2.186404 1
vt -1.794335 0
vt -1.794335 1
vt 2 0
vt 0.0384295 0.3901806
vt -2 0
vt -0.0384295 0.3901806
vt 0.152241 0.7653669
vt -0.152241 0.7653669
vt 0.3370608 1.11114
vt -0.3370608 1.11114
vt 0.5857865 1.414214
vt -0.5857865 1.414214
vt 0.8888595 1.662939
vt -0.8888595 1.662939
vt 1.234633 1.847759
vt -1.234633 1.847759
vt 1.609819 1.961571
vt -1.609819 1.961571
vt 2 2
vt -2 2
vt 2.390181 1.961571
vt -2.390181 1.961571
vt 2.765367 1.847759
vt -2.765367 1.847759
vt 3.11114 1.662939
vt -3.11114 1.662939
vt 3.414214 1.414214
vt -3.414214 1.414214
vt 3.662939 1.11114
vt -3.662939 1.11114
vt 3.847759 0.765367
vt -3.847759 0.765367
vt 3.961571 0.3901806
vt -3.961571 0.3901806
vt 4 -1.748456E-07
vt -4 -1.748456E-07
vt 3.961571 -0.3901805
vt -3.961571 -0.3901805
vt 3.847759 -0.7653669
vt -3.847759 -0.7653669
vt 3.662939 -1.111141
vt -3.662939 -1.111141
vt 3.414214 -1.414213
vt -3.414214 -1.414213
vt 3.111141 -1.662939
vt -3.111141 -1.662939
vt 2.765367 -1.847759
vt -2.765367 -1.847759
vt 2.390181 -1.961571
vt -2.390181 -1.961571
vt 2 -2
vt -2 -2
vt 1.609819 -1.961571
vt -1.609819 -1.961571
vt 1.234633 -1.847759
vt -1.234633 -1.847759
vt 0.8888599 -1.662939
vt -0.8888599 -1.662939
vt 0.5857867 -1.414214
vt -0.5857867 -1.414214
vt 0.3370608 -1.111141
vt -0.3370608 -1.111141
vt 0.1522409 -0.7653669
vt -0.1522409 -0.7653669
vt 0.03842938 -0.3901805
vt -0.03842938 -0.3901805

vn -1 0 1.31016E-07
vn -0.9807853 0 0.1950904
vn -0.9238796 0 0.3826834
vn -0.8314696 0 0.5555702
vn -0.7071068 0 0.7071068
vn -0.5555702 0 0.8314697
vn -0.3826834 0 0.9238796
vn -0.1950904 0 0.9807853
vn 1.497326E-08 0 1
vn 0.1950903 0 0.9807853
vn 0.3826834 0 0.9238796
vn 0.5555701 0 0.8314697
vn 0.7071067 0 0.7071068
vn 0.8314697 0 0.5555702
vn 0.9238794 0 0.3826836
vn 0.9807853 0 0.1950903
vn 1 0 -5.989304E-08
vn 0.9807853 0 -0.1950904
vn 0.9238794 0 -0.3826837
vn 0.8314696 0 -0.5555702
vn 0.7071068 0 -0.7071068
vn 0.5555704 0 -0.8314695
vn 0.3826836 0 -0.9238794
vn 0.1950904 0 -0.9807853
vn 0 0 -1
vn -0.1950904 0 -0.9807853
vn -0.3826835 0 -0.9238794
vn -0.5555702 0 -0.8314696
vn -0.7071066 0 -0.7071069
vn -0.8314695 0 -0.5555704
vn -0.9238795 0 -0.3826834
vn -0.9807853 0 -0.1950902
vn 0 -1 0
vn 0 1 0

usemtl ProBuilderDefault
f 1/1/33 65/63/33 3/64/33
f 3/64/33 65/63/33 5/67/33
f 5/67/33 65/63/33 7/69/33
f 7/69/33 65/63/33 9/71/33
f 9/71/33 65/63/33 11/73/33
f 11/73/33 65/63/33 13/75/33
f 13/75/33 65/63/33 15/77/33
f 15/77/33 65/63/33 17/79/33
f 17/79/33 65/63/33 19/81/33
f 19/81/33 65/63/33 21/83/33
f 21/83/33 65/63/33 23/85/33
f 23/85/33 65/63/33 25/87/33
f 25/87/33 65/63/33 27/89/33
f 27/89/33 65/63/33 29/91/33
f 29/91/33 65/63/33 31/93/33
f 31/93/33 65/63/33 33/95/33
f 33/95/33 65/63/33 35/97/33
f 35/97/33 65/63/33 37/99/33
f 37/99/33 65/63/33 39/101/33
f 39/101/33 65/63/33 41/103/33
f 41/103/33 65/63/33 43/105/33
f 43/105/33 65/63/33 45/107/33
f 45/107/33 65/63/33 47/109/33
f 47/109/33 65/63/33 49/111/33
f 49/111/33 65/63/33 51/113/33
f 51/113/33 65/63/33 53/115/33
f 53/115/33 65/63/33 55/117/33
f 55/117/33 65/63/33 57/119/33
f 57/119/33 65/63/33 59/121/33
f 59/121/33 65/63/33 61/123/33
f 61/123/33 65/63/33 63/125/33
f 63/125/33 65/63/33 1/1/33
f 4/66/34 66/65/34 2/1/34
f 6/68/34 66/65/34 4/66/34
f 8/70/34 66/65/34 6/68/34
f 10/72/34 66/65/34 8/70/34
f 12/74/34 66/65/34 10/72/34
f 14/76/34 66/65/34 12/74/34
f 16/78/34 66/65/34 14/76/34
f 18/80/34 66/65/34 16/78/34
f 20/82/34 66/65/34 18/80/34
f 22/84/34 66/65/34 20/82/34
f 24/86/34 66/65/34 22/84/34
f 26/88/34 66/65/34 24/86/34
f 28/90/34 66/65/34 26/88/34
f 30/92/34 66/65/34 28/90/34
f 32/94/34 66/65/34 30/92/34
f 34/96/34 66/65/34 32/94/34
f 36/98/34 66/65/34 34/96/34
f 38/100/34 66/65/34 36/98/34
f 40/102/34 66/65/34 38/100/34
f 42/104/34 66/65/34 40/102/34
f 44/106/34 66/65/34 42/104/34
f 46/108/34 66/65/34 44/106/34
f 48/110/34 66/65/34 46/108/34
f 50/112/34 66/65/34 48/110/34
f 52/114/34 66/65/34 50/112/34
f 54/116/34 66/65/34 52/114/34
f 56/118/34 66/65/34 54/116/34
f 58/120/34 66/65/34 56/118/34
f 60/122/34 66/65/34 58/120/34
f 62/124/34 66/65/34 60/122/34
f 64/126/34 66/65/34 62/124/34
f 2/1/34 66/65/34 64/126/34
f 4/4/2 2/2/1 1/1/1
f 1/1/1 3/3/2 4/4/2
f 6/8/3 4/6/2 3/5/2
f 3/5/2 5/7/3 6/8/3
f 8/12/4 6/10/3 5/9/3
f 5/9/3 7/11/4 8/12/4
f 10/16/5 8/14/4 7/13/4
f 7/13/4 9/15/5 10/16/5
f 12/20/6 10/18/5 9/17/5
f 9/17/5 11/19/6 12/20/6
f 14/24/7 12/22/6 11/21/6
f 11/21/6 13/23/7 14/24/7
f 16/28/8 14/26/7 13/25/7
f 13/25/7 15/27/8 16/28/8
f 18/32/9 16/30/8 15/29/8
f 15/29/8 17/31/9 18/32/9
f 20/32/10 18/30/9 17/29/9
f 17/29/9 19/31/10 20/32/10
f 22/28/11 20/26/10 19/25/10
f 19/25/10 21/27/11 22/28/11
f 24/24/12 22/22/11 21/21/11
f 21/21/11 23/23/12 24/24/12
f 26/20/13 24/18/12 23/17/12
f 23/17/12 25/19/13 26/20/13
f 28/16/14 26/14/13 25/13/13
f 25/13/13 27/15/14 28/16/14
f 30/12/15 28/10/14 27/9/14
f 27/9/14 29/11/15 30/12/15
f 32/8/16 30/6/15 29/5/15
f 29/5/15 31/7/16 32/8/16
f 34/4/17 32/2/16 31/1/16
f 31/1/16 33/3/17 34/4/17
f 36/2/18 34/34/17 33/33/17
f 33/33/17 35/1/18 36/2/18
f 38/38/19 36/36/18 35/35/18
f 35/35/18 37/37/19 38/38/19
f 40/42/20 38/40/19 37/39/19
f 37/39/19 39/41/20 40/42/20
f 42/46/21 40/44/20 39/43/20
f 39/43/20 41/45/21 42/46/21
f 44/50/22 42/48/21 41/47/21
f 41/47/21 43/49/22 44/50/22
f 46/54/23 44/52/22 43/51/22
f 43/51/22 45/53/23 46/54/23
f 48/58/24 46/56/23 45/55/23
f 45/55/23 47/57/24 48/58/24
f 50/62/25 48/60/24 47/59/24
f 47/59/24 49/61/25 50/62/25
f 52/62/26 50/60/25 49/59/25
f 49/59/25 51/61/26 52/62/26
f 54/58/27 52/56/26 51/55/26
f 51/55/26 53/57/27 54/58/27
f 56/54/28 54/52/27 53/51/27
f 53/51/27 55/53/28 56/54/28
f 58/50/29 56/48/28 55/47/28
f 55/47/28 57/49/29 58/50/29
f 60/46/30 58/44/29 57/43/29
f 57/43/29 59/45/30 60/46/30
f 62/42/31 60/40/30 59/39/30
f 59/39/30 61/41/31 62/42/31
f 64/38/32 62/36/31 61/35/31
f 61/35/31 63/37/32 64/38/32
f 2/2/1 64/34/32 63/33/32
f 63/33/32 1/1/1 2/2/1

